<svg xmlns="http://www.w3.org/2000/svg" version="1.1" xmlns:xlink="http://www.w3.org/1999/xlink" xmlns:svgjs="http://svgjs.dev/svgjs" width="100%" height="100%" viewBox="0 0 1000 600"><rect width="1000" height="600" x="0" y="0" fill="#ffffff"/><g><rect width="333.3333333333333" height="333.3333333333333" rx="13.333333333333334" ry="13.333333333333334" y="200.42083458401265" fill="#209cee" transform="matrix(0.7014645126773955,0,0,0.7014645126773954,0,42.501145072093706)" x="178.1986541748047"/><path d="M351.799547355443 442.08750515911726L351.799547355443 442.08750515911726Q331.1544539145981 442.08750515911726 315.9306674536392 433.48275628987966Q300.73840021930755 424.84648819401474 292.32276670983333 409.0868748803926Q283.93865242698644 393.29574234014336 283.93865242698644 371.98874514012635L283.93865242698644 371.98874514012635Q283.93865242698644 354.7162089483965 289.8327478062811 340.0912877933553Q295.7268431855757 325.466366638314 306.4118610122115 314.6867911317965Q317.06535961222 303.90721562527904 331.46964618087054 297.9816010193571Q345.90545197614836 292.08750564006243 363.14646894125093 292.08750564006243L363.14646894125093 292.08750564006243Q370.17525647912635 292.08750564006243 377.20404401700176 292.8754863057436Q384.23283155487724 293.6949861980519 389.9062923477812 294.8296783566327Q395.5797531406851 295.9643705152135 399.10990652293646 296.7523511808946Q402.6400599051878 297.54033184657567 402.6400599051878 297.54033184657567L402.6400599051878 297.54033184657567L403.5225982507506 298.8956585915472Q403.5225982507506 298.8956585915472 402.3879060921698 304.0017733051607Q401.25321393358905 309.1078880187743 399.8978871886175 317.74415611463917Q398.54256044364604 326.3489049838768 397.8491374578467 336.8132882241219L397.8491374578467 336.8132882241219L386.97500427144746 337.6958265696847Q386.97500427144746 337.6958265696847 387.3217157643471 333.97655782766986Q387.63690803061957 330.2257698590278 387.63690803061957 326.60105879689473L387.63690803061957 326.60105879689473Q387.63690803061957 315.916040970259 379.3788706542816 310.71536857676375Q371.0893140513164 305.4831769566412 354.2895662589953 305.4831769566412L354.2895662589953 305.4831769566412Q339.09729902466364 305.4831769566412 327.8449351187375 312.7325990809074Q316.6240904394386 320.0135404318008 310.477841247126 333.1570579353616Q304.36311128144064 346.3320946655496 304.36311128144064 364.48716920284215L304.36311128144064 364.48716920284215Q304.36311128144064 384.47035888451495 310.82455274002564 399.31591462594696Q317.2859941986107 414.1929895940062 328.9796272773183 422.48254619697144Q340.6732603560258 430.7405835733094 356.33831598976616 430.7405835733094L356.33831598976616 430.7405835733094Q371.7512178104885 430.7405835733094 381.1754665720345 422.0097577975627Q390.5997153335805 413.27893202181616 394.917849381513 394.9032228981328L394.917849381513 394.9032228981328L405.79198256791216 393.9891653259427Q405.79198256791216 393.9891653259427 405.13007880874005 397.39324180168506Q404.4366558229407 400.79731827742745 403.42804057086886 406.34470216382243Q402.3879060921698 411.9236052768446 401.379290840098 418.3850467354296Q400.3706755880262 424.84648819401474 399.6772526022268 430.9927373863273L399.6772526022268 430.9927373863273L398.32192585725534 433.00996789047093Q398.32192585725534 433.00996789047093 392.3017535714517 435.2793522076325Q386.2815812856481 437.54873652479415 375.8487172720303 439.8181208419557Q365.4158532584125 442.08750515911726 351.799547355443 442.08750515911726Z " fill="white" transform="matrix(0.7014645126773955,0,0,0.7014645126773954,0,42.501145072093706)"/><path d="M645.2594052124721 403.47880116642654L645.2594052124721 403.47880116642654Q629.9281805168389 403.47880116642654 618.6228652069292 397.0888403390862Q607.3409563469363 390.6754730618289 601.0914342190981 378.9722481033303Q594.8653185411767 367.24561669491453 594.8653185411767 351.42285655102427L594.8653185411767 351.42285655102427Q594.8653185411767 338.5961219965097 599.2423246756553 327.73552923502297Q603.6193308101338 316.87493647353614 611.5541173319959 308.86993060192304Q619.4654974039411 300.8649247303099 630.1622450160089 296.46451214591445Q640.8823990779936 292.08750601143595 653.6857271825912 292.08750601143595L653.6857271825912 292.08750601143595Q658.9053655140816 292.08750601143595 664.1250038455721 292.6726672593609Q669.3446421770625 293.28123495720274 673.5578031621219 294.1238671542147Q677.7709641471815 294.9664993512266 680.3924865378852 295.55166059915155Q683.014008928589 296.1368218470765 683.014008928589 296.1368218470765L683.014008928589 296.1368218470765L683.6693895262649 297.14329919350735Q683.6693895262649 297.14329919350735 682.826757329253 300.9351440800609Q681.984125132241 304.7269889666145 680.9776477858102 311.1403562438718Q679.9711704393792 317.5303170712121 679.4562285412053 325.3012584436552L679.4562285412053 325.3012584436552L671.3810033198413 325.95663904133113Q671.3810033198413 325.95663904133113 671.6384742689281 323.19467795112547Q671.8725387680981 320.40931041100276 671.8725387680981 317.717568670548L671.8725387680981 317.717568670548Q671.8725387680981 309.7827821486859 665.7400488898448 305.9207179123814Q659.5841525616745 302.0352472261598 647.1085147559149 302.0352472261598L647.1085147559149 302.0352472261598Q635.8266058959223 302.0352472261598 627.4705032755542 307.41873070706924Q619.1378071051031 312.8256206378956 614.5735493712885 322.5861102532835Q610.032698087391 332.3700063185884 610.032698087391 345.85212147077897L610.032698087391 345.85212147077897Q610.032698087391 360.6918107181553 614.8310203203755 371.716248629061Q619.62934255336 382.76409298988386 628.313135472566 388.9199893180541Q636.9969283917721 395.0524791963074 648.6299340005198 395.0524791963074L648.6299340005198 395.0524791963074Q660.0756880099315 395.0524791963074 667.0742165351137 388.5688925692992Q674.0727450602959 382.08530594229086 677.2794286989247 368.43934564068144L677.2794286989247 368.43934564068144L685.3546539202887 367.76055859308843Q685.3546539202887 367.76055859308843 684.8631184720317 370.2884551841242Q684.3481765738577 372.81635177515994 683.5991701765138 376.9358869605515Q682.826757329253 381.07882859586 682.0777509319091 385.87715082884444Q681.3287445345652 390.6754730618289 680.8138026363912 395.2397307956434L680.8138026363912 395.2397307956434L679.8073252899603 396.73774359033126Q679.8073252899603 396.73774359033126 675.3366933558138 398.423007984355Q670.8660614216674 400.1082723783789 663.1185264991411 401.79353677240266Q655.3709915766151 403.47880116642654 645.2594052124721 403.47880116642654ZM729.0076830154887 403.47880116642654L729.0076830154887 403.47880116642654Q719.4110385495198 403.47880116642654 711.9911939258318 398.77410473311005Q704.5713493021435 394.0460018498765 700.4518141167521 385.54946053000646Q696.3088724814434 377.02951276021946 696.3088724814434 366.0752941990647L696.3088724814434 366.0752941990647Q696.3088724814434 353.95075314206 701.4582914631828 344.26048287642305Q706.6077104449223 334.5702126107862 715.5255678632984 328.9058517308728Q724.4668317315914 323.2648973008765 735.421050292746 323.2648973008765L735.421050292746 323.2648973008765Q745.0176947587152 323.2648973008765 752.4375393824032 327.9930001841099Q759.8573840060915 332.6976966174264 763.9769191914829 341.12401858754544Q768.1198608267914 349.55034055766447 768.1198608267914 360.6918107181553L768.1198608267914 360.6918107181553Q768.1198608267914 372.65250662574095 762.9704418450519 382.41299624112884Q757.8210228633127 392.19689230643377 748.9733847946875 397.8378467364301Q740.1257467260625 403.47880116642654 729.0076830154887 403.47880116642654ZM733.7357858987223 395.2397307956434L733.7357858987223 395.2397307956434Q743.1685852152723 395.2397307956434 748.7393202955177 387.5624152228683Q754.2866489258461 379.8850996500931 754.2866489258461 366.75408124665756L754.2866489258461 366.75408124665756Q754.2866489258461 356.64249488251477 751.2672168865533 348.8949599599886Q748.2243783973438 341.12401858754544 742.8408949164343 336.74701245306693Q737.4340049856078 332.3700063185884 730.3652571106747 332.3700063185884L730.3652571106747 332.3700063185884Q720.9324577941247 332.3700063185884 715.3617227138793 340.11754124111457Q709.7909876336339 347.8650761636407 709.7909876336339 361.18334616641226L709.7909876336339 361.18334616641226Q709.7909876336339 371.29493253055506 712.8338261228437 378.9722481033303Q715.8766646120532 386.62615722618835 721.2601480929627 390.93294401091595Q726.6436315738722 395.2397307956434 733.7357858987223 395.2397307956434ZM828.2744371134747 403.47880116642654L828.9532241610677 396.5738984409123Q834.009017343139 395.2397307956434 836.1858171854199 392.6182084049397Q838.3860234776175 389.996686014236 838.3860234776175 385.6196798797575L838.3860234776175 385.6196798797575L839.0648105252105 352.26548874803626Q839.0648105252105 343.8391667779171 835.436810788076 339.2749090441027Q831.8088110509414 334.7340577602052 825.0677534748461 334.7340577602052L825.0677534748461 334.7340577602052Q821.0184376392056 334.7340577602052 816.8052766541462 336.41932215422895Q812.5921156690865 338.1045865482528 809.315212680707 340.11754124111457Q806.0383096923272 342.15390238389335 804.3530452983034 343.4880700291622L804.3530452983034 343.4880700291622Q804.1657936989675 347.8650761636407 803.9317291997975 353.85712734239206Q803.6742582507104 359.8491785211434 803.4167873016236 366.0752941990647Q803.1593163525365 372.30140987698593 802.9954712031176 377.35720305905744Q802.8316260536985 382.41299624112884 802.8316260536985 384.9408928321646L802.8316260536985 384.9408928321646Q802.8316260536985 390.183937613572 804.2594194986355 392.29051810610173Q805.6872129435724 394.39709859863154 808.8938965822008 394.39709859863154L808.8938965822008 394.39709859863154Q810.4153158268057 394.39709859863154 812.5921156690865 394.2098469992955Q814.7923219612842 394.0460018498765 814.7923219612842 394.0460018498765L814.7923219612842 394.0460018498765L815.1200122601222 394.7247888974695L813.6219994654343 401.9807883717387Q813.6219994654343 401.9807883717387 811.0941028743987 401.79353677240266Q808.566206283363 401.62969162298367 805.0084258959794 401.55947227323276Q801.4740519585127 401.4658464735647 798.2673683198841 401.4658464735647L798.2673683198841 401.4658464735647Q794.7329943824175 401.4658464735647 790.8709301461129 401.55947227323276Q786.9854594598914 401.62969162298367 784.2937177194367 401.72331742265175Q781.601975978982 401.79353677240266 781.601975978982 401.79353677240266L781.601975978982 401.79353677240266L782.6084533254129 394.8886340468885Q787.5004013580653 394.39709859863154 789.4197302512591 392.36073745585276Q791.36246559437 390.347782762991 791.36246559437 385.6196798797575L791.36246559437 385.6196798797575L791.36246559437 344.4945473755931Q791.36246559437 338.7833735958457 789.5133560509271 336.48954150398Q787.6642465074842 334.2191158620312 783.0999887736698 334.2191158620312L783.0999887736698 334.2191158620312L781.2508792302269 334.2191158620312L780.7593437819701 333.5403288144383L781.2508792302269 327.9930001841099Q787.1493046093103 326.98652283767905 792.5561945401369 325.8864196915801Q797.9396780210461 324.78631654548127 801.4038326087618 323.9436843484694Q804.8445807465605 323.1010521514575 804.8445807465605 323.1010521514575L804.8445807465605 323.1010521514575L805.8510580929913 324.4586262466433Q805.8510580929913 324.4586262466433 805.1020516956473 327.8291550346909Q804.3530452983034 331.19968382273856 804.0019485495484 335.57668995721707L804.0019485495484 335.57668995721707L804.3530452983034 336.06822540547404Q805.8510580929913 335.06174805904317 809.0577417316199 332.95516756651335Q812.2644253702485 330.84858707398354 816.056270256802 328.57816143203485Q819.8481151433557 326.30773579008616 823.3824890808223 324.78631654548127Q826.916863018289 323.2648973008765 829.1170693104866 323.2648973008765L829.1170693104866 323.2648973008765Q837.2157009817677 323.2648973008765 842.8566554117642 326.7290518885921Q848.4976098417605 330.16980002639065 850.6978161339582 336.58316730364794L850.6978161339582 336.58316730364794Q851.7042934803892 335.74053510663606 854.8173513193499 333.63395461410624Q857.9304091583103 331.52737412157654 861.9797249939511 329.1633226799598Q866.0290408295916 326.799271238343 869.8208857161451 325.0437874945682Q873.6127306026988 323.2648973008765 876.1406271937344 323.2648973008765L876.1406271937344 323.2648973008765Q886.7437490061343 323.2648973008765 892.9932711339725 329.1633226799598Q899.2193868118939 335.06174805904317 899.2193868118939 345.009489273767L899.2193868118939 345.009489273767Q899.2193868118939 347.20969556596475 898.8916965130559 352.26548874803626Q898.5405997643009 357.32128193010766 898.049064316044 363.5473976080289Q897.5341224178701 369.7735132859503 897.2064321190321 375.5080935156146Q896.8553353702771 381.242673745279 896.8553353702771 384.9408928321646L896.8553353702771 384.9408928321646Q896.8553353702771 390.183937613572 898.3065352651311 392.29051810610173Q899.7343287100678 394.39709859863154 902.9410123486964 394.39709859863154L902.9410123486964 394.39709859863154Q904.4390251433842 394.39709859863154 906.6392314355821 394.2098469992955Q908.8394377277798 394.0460018498765 908.8394377277798 394.0460018498765L908.8394377277798 394.0460018498765L909.1671280266178 394.7247888974695L907.6457087820129 401.9807883717387Q907.6457087820129 401.9807883717387 906.1242895374082 401.88716257207074Q904.6262767427202 401.79353677240266 902.2622253011036 401.72331742265175Q899.8981738594869 401.62969162298367 897.276651468783 401.55947227323276Q894.6785355279965 401.4658464735647 892.3144840863797 401.4658464735647L892.3144840863797 401.4658464735647Q889.622742345925 401.4658464735647 886.7437490061343 401.62969162298367Q883.8881621162604 401.79353677240266 881.3602655252248 401.9807883717387Q878.8323689341892 402.1446335211577 877.2407303398334 402.3084786705767Q875.6256852955605 402.47232381999567 875.6256852955605 402.47232381999567L875.6256852955605 402.47232381999567L876.4683174925724 395.5674210944814Q881.3602655252248 394.7247888974695 883.3732202180865 392.52458260527175Q885.4095813608656 390.347782762991 885.4095813608656 385.6196798797575L885.4095813608656 385.6196798797575L886.0883684084583 352.26548874803626Q886.0883684084583 343.8391667779171 882.4603686713237 339.2749090441027Q878.8323689341892 334.7340577602052 872.0913113580939 334.7340577602052L872.0913113580939 334.7340577602052Q868.0419955224534 334.7340577602052 864.0863054864808 336.25547700480996Q860.1306154505082 337.7534897994978 856.8303060122116 339.7898509422766Q853.5534030238321 341.8028056351383 851.7042934803892 343.1603797303242L851.7042934803892 343.1603797303242L849.8551839369463 384.9408928321646Q849.8551839369463 389.832840864817 851.1893515822153 392.1032665067658Q852.5469256774011 394.39709859863154 855.7536093160297 394.39709859863154L855.7536093160297 394.39709859863154Q857.2516221107176 394.39709859863154 859.4518284029152 394.2098469992955Q861.6520346951131 394.0460018498765 861.6520346951131 394.0460018498765L861.6520346951131 394.0460018498765L861.9797249939511 394.7247888974695L860.6221508987651 401.9807883717387Q860.6221508987651 401.9807883717387 859.1943574538284 401.88716257207074Q857.7665640088915 401.79353677240266 855.4961383669427 401.72331742265175Q853.2257127249941 401.62969162298367 850.6041903342903 401.55947227323276Q847.9826679435864 401.4658464735647 845.6420229518869 401.4658464735647L845.6420229518869 401.4658464735647Q842.9268747615151 401.4658464735647 839.9776620719733 401.79353677240266Q837.0284493824317 402.1446335211577 834.336707641977 402.47232381999567Q831.6449659015225 402.8234205687506 829.9597015074985 403.15111086758856Q828.2744371134747 403.47880116642654 828.2744371134747 403.47880116642654L828.2744371134747 403.47880116642654ZM921.9704561312153 441.3972500319623L921.9704561312153 441.3972500319623L922.8130883282272 434.84344405520307Q928.2199782590537 434.16465700761006 929.8116168534093 431.89423136566137Q931.4032554477653 429.60039927379563 931.4032554477653 422.69549654828137L931.4032554477653 422.69549654828137Q931.4032554477653 420.0037548078266 931.4968812474333 414.78411647633624Q931.5905070471013 409.56447814484585 931.6607263968522 403.9001172649325Q931.7543521965204 398.25916283493603 931.7543521965204 394.7247888974695L931.7543521965204 394.7247888974695L931.7543521965204 344.4945473755931Q931.7543521965204 338.7833735958457 929.9052426530775 336.48954150398Q928.0327266597176 334.2191158620312 923.4918753758202 334.2191158620312L923.4918753758202 334.2191158620312L921.6427658323773 334.2191158620312L921.1278239342034 333.5403288144383L921.6427658323773 327.9930001841099Q927.5411912114607 326.98652283767905 932.9246746923702 325.8864196915801Q938.3315646231965 324.78631654548127 941.7723127609952 323.9436843484694Q945.2364673487107 323.1010521514575 945.2364673487107 323.1010521514575L945.2364673487107 323.1010521514575L946.2429446951417 324.4586262466433Q946.2429446951417 324.4586262466433 945.5641576475487 327.314213136517Q944.8853705999556 330.16980002639065 944.5576803011179 333.5403288144383L944.5576803011179 333.5403288144383L945.2364673487107 334.7340577602052Q952.656311972399 329.5144194287148 957.7823245042214 326.635426088924Q962.9317434859609 323.7798391990504 964.7808530294035 323.7798391990504L964.7808530294035 323.7798391990504Q974.5647490947085 323.7798391990504 981.7973421190607 328.25047113319687Q989.0533415933298 332.6976966174264 993.1728767787215 340.7027024890395Q997.31581841403 348.7077083606526 997.31581841403 359.3342366229694L997.31581841403 359.3342366229694Q997.31581841403 368.43934564068144 994.0155089757334 376.44435151229453Q990.7386059873536 384.4493573839076 984.9103999580213 390.5116279124099Q979.1056003786059 396.5738984409123 971.5219106054988 400.03805302862787Q963.9382208323916 403.47880116642654 955.3480537128535 403.47880116642654L955.3480537128535 403.47880116642654Q953.3116925700749 403.47880116642654 950.4561056802013 403.31495601700755Q947.6005187903274 403.15111086758856 945.3066866984618 402.98726571816957Q943.036261056513 402.8234205687506 943.036261056513 402.8234205687506L943.036261056513 402.8234205687506Q943.036261056513 407.0365815538101 943.129886856181 411.4135876882886Q943.2001062059319 415.7905938227671 943.2001062059319 420.1675999572456L943.2001062059319 420.1675999572456Q943.2001062059319 427.91513487977176 944.8151512502047 430.70050241989446Q946.4067898445605 433.48586996001717 951.1348927277941 433.48586996001717L951.1348927277941 433.48586996001717Q952.4690603730628 433.48586996001717 953.9904796176677 433.3922441603492Q955.5118988622726 433.3220248105982 956.8694729574584 433.3220248105982L956.8694729574584 433.3220248105982L957.1971632562963 433.81356025885515L955.8395891611106 440.22692753611244Q953.8266344682488 440.22692753611244 951.8136797753871 440.22692753611244Q949.7773186326083 440.22692753611244 947.8345832894975 440.22692753611244Q945.9152543963037 440.22692753611244 943.8788932535249 440.22692753611244Q941.8659385606632 440.22692753611244 939.8295774178844 440.22692753611244L939.8295774178844 440.22692753611244Q935.1248809845679 440.22692753611244 930.9819393492594 440.4843984851994Q926.8624041638677 440.74186943428634 924.4281333725 441.0695597331243Q921.9704561312153 441.3972500319623 921.9704561312153 441.3972500319623ZM960.0527501461702 394.2098469992955L960.0527501461702 394.2098469992955Q971.3580654560799 394.2098469992955 977.8416520830881 386.55593787643744Q984.3252387100963 378.8786223036622 984.3252387100963 365.56035230089077L984.3252387100963 365.56035230089077Q984.3252387100963 356.97018518135263 981.3760260205547 350.15890825550645Q978.4268133310131 343.3242248797432 973.3710201489416 339.2749090441027Q968.3152269668701 335.22559320846216 962.089111288949 335.22559320846216L962.089111288949 335.22559320846216Q958.7185825009012 335.22559320846216 953.8266344682488 337.5194253003279Q948.9346864355964 339.7898509422766 944.5576803011179 343.4880700291622L944.5576803011179 343.4880700291622Q944.2299900022799 350.39297275467646 943.8788932535249 358.6554495753765Q943.5512029546869 366.91792639607655 943.387357805268 375.3442483661957Q943.2001062059319 383.77057033631473 943.2001062059319 391.0265698105839L943.2001062059319 391.0265698105839Q946.5706349939796 392.36073745585276 951.2051120775452 393.2969954525326Q955.8395891611106 394.2098469992955 960.0527501461702 394.2098469992955ZM1066.0605618202512 403.47880116642654L1066.0605618202512 403.47880116642654Q1059.319504244156 403.47880116642654 1055.5276593576025 400.03805302862787Q1051.7358144710488 396.5738984409123 1051.057027423456 389.832840864817L1051.057027423456 389.832840864817L1050.40164682578 389.668995715398Q1046.3523309901395 393.71831155103854 1042.724331253005 396.66752424058024Q1039.0963315158704 399.61673693012193 1036.3109639757477 401.20837552447773Q1033.549002885542 402.8234205687506 1031.8637384915182 402.8234205687506L1031.8637384915182 402.8234205687506Q1025.6142163636798 402.8234205687506 1020.7222683310274 400.1082723783789Q1015.8537267482918 397.41653063792415 1013.0683592081693 392.71183420460767Q1010.2829916680466 387.98373132137425 1010.2829916680466 381.92146079287187L1010.2829916680466 381.92146079287187Q1010.2829916680466 377.02951276021946 1012.7172624594143 373.33129367333385Q1015.1749397006988 369.6096681365313 1019.2242555363396 368.43934564068144L1019.2242555363396 368.43934564068144L1051.244279022792 359.6619269218074L1051.408124172211 352.26548874803626Q1051.408124172211 343.8391667779171 1047.5226534859894 339.1110638946837Q1043.6605892496848 334.38296101145016 1036.5684349248345 334.38296101145016L1036.5684349248345 334.38296101145016Q1031.8637384915182 334.38296101145016 1026.6206937101106 336.58316730364794Q1021.4010553786202 338.7833735958457 1016.3452621965487 342.8092829815693L1016.3452621965487 342.8092829815693L1015.502629999537 342.31774753331234L1013.489675306675 335.06174805904317Q1017.8666814411536 332.5338514680074 1023.250164922063 329.7484839278847Q1028.6570548528894 326.98652283767905 1033.549002885542 325.11400684431925Q1038.4175444682774 323.2648973008765 1040.945441059313 323.2648973008765L1040.945441059313 323.2648973008765Q1048.3652856830013 323.2648973008765 1053.5849240144917 325.8864196915801Q1058.827968795899 328.4845356323669 1061.5899298861048 333.30626431526827Q1064.3752974262275 338.1045865482528 1064.3752974262275 345.009489273767L1064.3752974262275 345.009489273767Q1064.3752974262275 347.20969556596475 1063.9539813277215 352.0782371487002Q1063.5326652292156 356.97018518135263 1062.8538781816226 362.962236360104Q1062.1984975839466 368.9308810889384 1061.7771814854407 374.5016161691837Q1061.3558653869347 380.0723512494291 1061.3558653869347 383.77057033631473L1061.3558653869347 383.77057033631473Q1061.3558653869347 387.46878942320023 1063.2049749303776 389.505150565979Q1065.0540844738205 391.5181052588409 1068.260768112449 391.5181052588409L1068.260768112449 391.5181052588409Q1071.1163550023227 391.5181052588409 1073.9953483421134 390.09031181390395Q1076.850935231987 388.66251836896714 1078.372354476592 387.30494427378136L1078.372354476592 387.30494427378136L1080.7364059182087 389.996686014236Q1079.3788318230227 392.19689230643377 1077.108406181074 394.9822598465565Q1074.8379805391253 397.7676273866792 1072.0526129990026 400.1082723783789Q1069.2672454588799 402.47232381999567 1066.0605618202512 403.47880116642654ZM1034.7193253813919 391.3542601094219L1034.7193253813919 391.3542601094219Q1037.9260090200205 391.3542601094219 1042.209389354831 389.0838344674731Q1046.5161761395584 386.8134088255244 1050.050550077025 383.2556284381407L1050.050550077025 383.2556284381407L1050.893182274037 366.0752941990647L1027.9782678052966 372.98019692457893Q1023.0863197726442 374.5016161691837 1023.0863197726442 380.0723512494291L1023.0863197726442 380.0723512494291Q1023.0863197726442 384.7770476827456 1026.3866292109408 388.0773571210422Q1029.6635321993203 391.3542601094219 1034.7193253813919 391.3542601094219ZM1136.3501309209944 403.47880116642654L1137.0055115186703 396.5738984409123Q1142.0613047007419 395.2397307956434 1144.2615109929395 392.6182084049397Q1146.4617172851372 389.996686014236 1146.4617172851372 385.6196798797575L1146.4617172851372 385.6196798797575L1147.1170978828131 352.26548874803626Q1147.1170978828131 343.8391667779171 1143.5125045955956 339.2749090441027Q1139.884504858461 334.7340577602052 1133.1434472823657 334.7340577602052L1133.1434472823657 334.7340577602052Q1129.0941314467252 334.7340577602052 1124.8809704616656 336.41932215422895Q1120.6678094766062 338.1045865482528 1117.3909064882266 340.11754124111457Q1114.09059704993 342.15390238389335 1112.4053326559062 343.4880700291622L1112.4053326559062 343.4880700291622Q1112.2414875064871 347.8650761636407 1111.9840165574 353.85712734239206Q1111.7265456083132 359.8491785211434 1111.4924811091432 366.0752941990647Q1111.2350101600562 372.30140987698593 1111.0711650106373 377.35720305905744Q1110.8839134113014 382.41299624112884 1110.8839134113014 384.9408928321646L1110.8839134113014 384.9408928321646Q1110.8839134113014 390.183937613572 1112.335113306155 392.29051810610173Q1113.762906751092 394.39709859863154 1116.9695903897207 394.39709859863154L1116.9695903897207 394.39709859863154Q1118.4676031844085 394.39709859863154 1120.6678094766062 394.2098469992955Q1122.868015768804 394.0460018498765 1122.868015768804 394.0460018498765L1122.868015768804 394.0460018498765L1123.1957060676418 394.7247888974695L1121.674286823037 401.9807883717387Q1121.674286823037 401.9807883717387 1119.1463902320013 401.79353677240266Q1116.6184936409657 401.62969162298367 1113.084119703499 401.55947227323276Q1109.5497457660324 401.4658464735647 1106.3430621274038 401.4658464735647L1106.3430621274038 401.4658464735647Q1102.8086881899371 401.4658464735647 1098.9232175037157 401.72331742265175Q1095.061153267411 401.9807883717387 1092.3460050770393 402.2148528709086Q1089.6542633365848 402.47232381999567 1089.6542633365848 402.47232381999567L1089.6542633365848 402.47232381999567L1090.4968955335967 395.5674210944814Q1095.388843566249 394.7247888974695 1097.4017982591108 392.52458260527175Q1099.4381594018896 390.347782762991 1099.4381594018896 385.6196798797575L1099.4381594018896 385.6196798797575L1099.4381594018896 344.4945473755931Q1099.4381594018896 338.7833735958457 1097.5890498584467 336.48954150398Q1095.716533865087 334.2191158620312 1091.1756825811894 334.2191158620312L1091.1756825811894 334.2191158620312L1089.3265730377466 334.2191158620312L1088.8116311395727 333.5403288144383L1089.3265730377466 327.9930001841099Q1095.22499841683 326.98652283767905 1100.6084818977395 325.8864196915801Q1106.0153718285658 324.78631654548127 1109.4561199663644 323.9436843484694Q1112.92027455408 323.1010521514575 1112.92027455408 323.1010521514575L1112.92027455408 323.1010521514575L1113.926751900511 324.4586262466433Q1113.926751900511 324.4586262466433 1113.177745503167 327.8291550346909Q1112.4053326559062 331.19968382273856 1112.077642357068 335.57668995721707L1112.077642357068 335.57668995721707L1112.4053326559062 336.06822540547404Q1113.926751900511 335.06174805904317 1117.2036548888905 332.95516756651335Q1120.5039643271873 330.84858707398354 1124.2958092137408 328.6717872317028Q1128.0876541002945 326.47158093950503 1131.6220280377609 324.87994234514923Q1135.1564019752275 323.2648973008765 1137.1927631180063 323.2648973008765L1137.1927631180063 323.2648973008765Q1147.7958849304061 323.2648973008765 1154.0454070582443 329.1633226799598Q1160.2715227361657 335.06174805904317 1160.2715227361657 345.009489273767L1160.2715227361657 345.009489273767Q1160.2715227361657 347.20969556596475 1159.9438324373277 352.26548874803626Q1159.5927356885727 357.32128193010766 1159.1012002403158 363.5473976080289Q1158.586258342142 369.7735132859503 1158.258568043304 375.5080935156146Q1157.907471294549 381.242673745279 1157.907471294549 384.9408928321646L1157.907471294549 384.9408928321646Q1157.907471294549 389.832840864817 1159.265045389735 392.1032665067658Q1160.5992130350037 394.39709859863154 1163.8058966736323 394.39709859863154L1163.8058966736323 394.39709859863154Q1165.3273159182372 394.39709859863154 1167.5275222104349 394.2098469992955Q1169.7043220527157 394.0460018498765 1169.7043220527157 394.0460018498765L1169.7043220527157 394.0460018498765L1170.0554188014705 394.7247888974695L1168.6978447062847 401.9807883717387Q1168.6978447062847 401.9807883717387 1167.270051261348 401.88716257207074Q1165.8422578164111 401.79353677240266 1163.5484257245455 401.72331742265175Q1161.2780000825967 401.62969162298367 1158.67988414181 401.55947227323276Q1156.0583617511063 401.4658464735647 1153.6943103094895 401.4658464735647L1153.6943103094895 401.4658464735647Q1151.0025685690348 401.4658464735647 1148.0533558794932 401.79353677240266Q1145.1041431899514 402.1446335211577 1142.4124014494969 402.47232381999567Q1139.720659709042 402.8234205687506 1138.0353953150181 403.15111086758856Q1136.3501309209944 403.47880116642654 1136.3501309209944 403.47880116642654L1136.3501309209944 403.47880116642654ZM1177.1241666764038 442.0760370795552L1177.1241666764038 442.0760370795552Q1176.445379628811 442.0760370795552 1175.2750571329611 440.90571458370533Q1174.0813281871942 439.7119856379384 1172.8173798916764 438.1203470435826Q1171.5534315961584 436.5287084492268 1170.6405800493956 434.913663404954Q1169.7043220527157 433.3220248105982 1169.7043220527157 432.4793926135863L1169.7043220527157 432.4793926135863L1170.5469542497276 431.2856636678194Q1180.3308503150324 431.2856636678194 1188.4060755363967 423.2806577962063Q1196.5047072076777 415.2756519245932 1202.239287437342 401.4658464735647L1202.239287437342 401.4658464735647Q1200.7178681927373 396.5738984409123 1198.7049134998754 390.347782762991Q1196.6685523570968 384.0982606351527 1194.3981267151478 377.2869837093064Q1192.1277010731992 370.4523003335432 1189.8572754312504 363.641023407697Q1187.5634433393848 356.80634003193376 1185.386643497104 350.5802243540124Q1183.1864372049063 344.3307022261741 1181.3373276614634 339.4387541935217L1181.3373276614634 339.4387541935217Q1179.6520632674396 335.06174805904317 1176.866695727317 333.30626431526827Q1174.0813281871942 331.52737412157654 1169.8681672021346 331.36352897215755L1169.8681672021346 331.36352897215755L1169.5404769032968 330.68474192456466L1170.5469542497276 325.11400684431925Q1170.5469542497276 325.11400684431925 1173.2386959901824 325.11400684431925Q1175.953844180554 325.11400684431925 1179.3243729686017 325.2076326439872Q1182.6949017566492 325.3012584436552 1184.544011300092 325.3012584436552L1184.544011300092 325.3012584436552Q1188.2422303869776 325.3012584436552 1191.8702301241121 325.11400684431925Q1195.4982298612467 324.95016169490026 1198.3538167511206 324.6926907458133Q1201.2328100909112 324.4586262466433 1202.9882938346861 324.27137464730737Q1204.7671840283776 324.1075294978884 1204.7671840283776 324.1075294978884L1204.7671840283776 324.1075294978884L1205.0948743272158 324.95016169490026L1204.0883969807849 330.16980002639065Q1198.3538167511206 330.3570516257267 1196.4110814080097 331.2699031724896Q1194.491752514816 332.20616116916943 1194.491752514816 334.5702126107862L1194.491752514816 334.5702126107862Q1194.491752514816 336.06822540547404 1195.5684492109979 340.3750121902015Q1196.6685523570968 344.681798974929 1198.3538167511206 350.39297275467646Q1200.0390811451443 356.12755298434075 1201.8881906885872 362.2834493125111Q1203.7607066819469 368.43934564068144 1205.4459710759709 373.7526097718398Q1207.1312354699946 379.0424674530812 1208.2079321661765 382.3427768913778Q1209.3080353122753 385.6196798797575 1209.3080353122753 385.6196798797575L1209.3080353122753 385.6196798797575L1209.9868223598683 385.6196798797575Q1212.8424092497419 378.7147771542432 1216.2129380377894 370.54592613321114Q1219.5834668258371 362.37707511217906 1222.532679515379 354.7933853390719Q1225.4818922049205 347.20969556596475 1227.4246275480314 341.8028056351383Q1229.3673628911422 336.41932215422895 1229.3673628911422 335.22559320846216L1229.3673628911422 335.22559320846216Q1229.3673628911422 332.8849482167623 1227.8459436465373 331.8550644204145Q1226.3245244019324 330.84858707398354 1222.953995613885 330.84858707398354L1222.953995613885 330.84858707398354L1215.2064606913589 330.84858707398354L1214.8787703925207 330.16980002639065L1215.8852477389516 324.6224713960623Q1215.8852477389516 324.6224713960623 1218.5067701296553 324.78631654548127Q1221.104886070442 324.95016169490026 1225.0605761064146 325.11400684431925Q1229.039672592304 325.3012584436552 1233.065581978028 325.3012584436552L1233.065581978028 325.3012584436552Q1236.1084204672372 325.3012584436552 1239.385323455617 325.2076326439872Q1242.6856328939136 325.11400684431925 1245.0496843355304 325.11400684431925Q1247.3903293272303 325.11400684431925 1247.3903293272303 325.11400684431925L1247.3903293272303 325.11400684431925L1246.2200068313803 331.36352897215755Q1242.5217877444945 332.04231601975044 1240.579052401384 334.0552707126122Q1238.636317058273 336.06822540547404 1236.7872075148302 340.96017343812645L1236.7872075148302 340.96017343812645L1215.3703058407775 392.19689230643377Q1209.1441901628564 407.2004267032291 1204.416087279623 416.96091631861697Q1199.7113908463064 426.7448123839219 1195.5684492109979 432.3155474641673Q1191.4489140256062 437.8628760944957 1187.0719078911277 440.06308238669345Q1182.6949017566492 442.2398822289742 1177.1241666764038 442.0760370795552Z " fill="#209cee" transform="matrix(0.7014645126773955,0,0,0.7014645126773954,0,42.501145072093706)"/></g></svg>